<mxfile host="app.diagrams.net" modified="2023-04-12T07:57:14.589Z" agent="Mozilla/5.0 (Macintosh; Intel Mac OS X 10_15_7) AppleWebKit/537.36 (KHTML, like Gecko) Chrome/112.0.0.0 Safari/537.36" version="21.1.6" etag="QTogiRkyNxjIhgL5-aiy" type="github">
  <diagram name="페이지-1" id="J3zhngIPdOos0hpMVXp6">
    <mxGraphModel>
      <root>
        <mxCell id="0" />
        <mxCell id="1" parent="0" />
      </root>
    </mxGraphModel>
  </diagram>
</mxfile>
